<svg width="21" height="16" viewBox="0 0 21 16" fill="none" xmlns="http://www.w3.org/2000/svg">
<path d="M19.402 9.18998C19.402 9.10998 19.402 9.03998 19.402 8.96998C19.392 8.10998 18.902 3.96998 18.622 3.22998C18.302 2.37998 17.862 1.72998 17.312 1.31998C16.412 0.649981 15.652 0.49998 14.712 0.47998H14.692C14.292 0.47998 11.682 0.79998 9.49204 1.09998C7.29204 1.39998 4.54204 1.79998 3.89204 2.03998C2.99204 2.36998 2.27204 2.80998 1.70204 3.36998C0.652037 4.40998 0.522037 5.47998 0.662037 6.87998C0.762037 7.96998 1.35204 12.25 1.68204 13.23C2.13204 14.55 3.01204 15.35 4.15204 15.47C4.43204 15.5 4.70204 15.52 4.97204 15.52C5.97204 15.52 6.77204 15.31 7.69204 15.06C9.14204 14.67 10.942 14.19 14.662 14.19H14.752H14.772C15.682 14.19 17.912 13.99 18.932 12.12C19.452 11.12 19.422 9.90998 19.402 9.18998Z" fill="#FF0000"/>
<path d="M20.002 9.26C20.002 9.18 20.002 9.1 19.992 9.02C19.982 8.1 19.452 3.7 19.162 2.91C18.822 2 18.352 1.32 17.762 0.88C16.822 0.17 16.002 0.02 15.012 0H14.992C14.562 0 11.782 0.34 9.45203 0.66C7.12203 0.98 4.20203 1.41 3.50203 1.66C2.54203 2.01 1.77203 2.48 1.17203 3.08C0.0520329 4.18 -0.0779672 5.33 0.0620328 6.82C0.172033 7.98 0.792033 12.53 1.14203 13.57C1.62203 14.98 2.55203 15.82 3.77203 15.95C4.07203 15.98 4.35203 16 4.64203 16C5.71203 16 6.55203 15.77 7.53203 15.51C9.07203 15.1 10.992 14.58 14.942 14.58H15.042H15.062C16.032 14.58 18.402 14.37 19.482 12.38C20.052 11.32 20.022 10.03 20.002 9.26ZM18.602 11.91C17.782 13.42 15.852 13.59 15.042 13.59H14.942C10.852 13.59 8.87203 14.12 7.27203 14.55C6.32203 14.8 5.57203 15 4.64203 15C4.39203 15 4.14203 14.99 3.88203 14.96C2.84203 14.85 2.34203 13.97 2.09203 13.25C1.79203 12.37 1.18203 8.04 1.05203 6.72C0.912033 5.25 1.11203 4.54 1.87203 3.79C2.37203 3.29 3.02203 2.9 3.84203 2.6C4.01203 2.54 4.94203 2.28 9.58203 1.65C12.212 1.29 14.652 1.01 15.002 1C15.832 1.02 16.432 1.13 17.172 1.69C17.602 2.01 17.962 2.55 18.232 3.27C18.452 3.85 18.992 8.05 19.002 9.04L19.012 9.29C19.022 9.96 19.052 11.08 18.602 11.91Z" fill="black"/>
<path d="M9.60202 10.76C9.12202 11.12 8.80202 11.21 8.59202 11.21C8.43202 11.21 8.34202 11.16 8.29202 11.13C7.95202 10.95 7.87202 10.52 7.79202 9.93003L7.78202 9.83003C7.74202 9.52003 7.52202 7.73003 7.40202 6.67003L7.31202 5.94003C7.27202 5.66003 7.21202 5.19003 7.55202 4.94003C7.87202 4.71003 8.30202 4.85003 8.51202 4.91003C9.04202 5.08003 12.112 6.14003 13.102 6.64003C13.312 6.73003 13.772 6.92003 13.782 7.47003C13.792 7.97003 13.402 8.21003 13.252 8.29003L9.60202 10.76Z" fill="black"/>
<path d="M8.31204 5.89001C8.31204 5.89001 8.81204 9.97001 8.82204 10.08C8.88204 10.04 12.612 7.50001 12.612 7.50001C11.722 7.07001 9.08204 6.14001 8.31204 5.89001Z" fill="white"/>
</svg>
