<svg width="25" height="24" viewBox="0 0 25 24" fill="none" xmlns="http://www.w3.org/2000/svg">
<path d="M12.0103 22C17.5332 22 22.0103 17.5228 22.0103 12C22.0103 6.47715 17.5332 2 12.0103 2C6.4875 2 2.01035 6.47715 2.01035 12C2.01035 17.5228 6.4875 22 12.0103 22Z" fill="#FF0000"/>
<path d="M10.0103 14.65V9.34998L15.0103 12L10.0103 14.65Z" fill="white"/>
<path d="M12.0103 7C14.7703 7 17.0103 9.24 17.0103 12C17.0103 14.76 14.7703 17 12.0103 17C9.25035 17 7.01035 14.76 7.01035 12C7.01035 9.24 9.25035 7 12.0103 7ZM12.0103 6C8.70035 6 6.01035 8.69 6.01035 12C6.01035 15.31 8.70035 18 12.0103 18C15.3203 18 18.0103 15.31 18.0103 12C18.0103 8.69 15.3203 6 12.0103 6Z" fill="white"/>
</svg>
