<svg width="25" height="24" viewBox="0 0 25 24" fill="none" xmlns="http://www.w3.org/2000/svg">
<path d="M22.5503 7.59997C22.5503 7.59997 22.3503 6.09997 21.6903 5.42997C20.8603 4.55997 19.9403 4.54997 19.5103 4.49997C16.4703 4.27997 11.9103 4.29997 11.9103 4.29997C11.9103 4.29997 7.35035 4.27997 4.31035 4.49997C3.88035 4.54997 2.96035 4.55997 2.13035 5.42997C1.48035 6.09997 1.27035 7.60997 1.27035 7.60997C1.27035 7.60997 1.05035 9.39997 1.01035 11.18V12.84C1.05035 14.62 1.27035 16.39 1.27035 16.39C1.27035 16.39 1.47035 17.89 2.13035 18.57C2.96035 19.44 4.03035 19.41 4.53035 19.51C6.23035 19.66 11.7303 19.71 11.9103 19.71C11.9103 19.71 16.4803 19.71 19.5103 19.49C19.9403 19.44 20.8603 19.43 21.6903 18.56C22.3403 17.89 22.5503 16.38 22.5503 16.38C22.5503 16.38 22.7703 14.61 22.7903 12.83V11.17C22.7703 9.38997 22.5503 7.61997 22.5503 7.61997V7.59997Z" fill="#FF0000"/>
<path d="M9.69034 8.89996V15.08L15.5303 11.98" fill="#FAFAFA"/>
<path d="M9.69034 8.87994L14.8203 12.3599L15.5503 11.9799" fill="black" fill-opacity="0.12"/>
<path d="M22.5503 7.59997C22.5503 7.59997 22.3503 6.09997 21.6903 5.42997C20.8603 4.55997 19.9403 4.54997 19.5103 4.49997C16.4703 4.27997 11.9103 4.29997 11.9103 4.29997C11.9103 4.29997 7.35035 4.27997 4.31035 4.49997C3.88035 4.54997 2.96035 4.55997 2.13035 5.42997C1.48035 6.09997 1.27035 7.60997 1.27035 7.60997C1.27035 7.60997 1.05035 9.39997 1.01035 11.18V11.28C1.05035 9.51997 1.27035 7.73997 1.27035 7.73997C1.27035 7.73997 1.47035 6.23997 2.13035 5.56997C2.96035 4.68997 3.88035 4.68997 4.31035 4.63997C7.35035 4.41997 11.9103 4.43997 11.9103 4.43997C11.9103 4.43997 16.4703 4.41997 19.5103 4.63997C19.9403 4.68997 20.8603 4.68997 21.6903 5.56997C22.3403 6.22997 22.5503 7.73997 22.5503 7.73997C22.5503 7.73997 22.7703 9.51997 22.7803 11.29V11.19C22.7803 9.38997 22.5503 7.62997 22.5503 7.62997V7.59997Z" fill="white" fill-opacity="0.2"/>
<path d="M22.5503 16.4C22.5503 16.4 22.3503 17.9 21.6903 18.57C20.8603 19.44 19.9403 19.45 19.5103 19.5C16.4703 19.72 11.9103 19.7 11.9103 19.7C11.9103 19.7 7.35035 19.72 4.31035 19.5C3.88035 19.45 2.96035 19.44 2.13035 18.57C1.48035 17.9 1.27035 16.39 1.27035 16.39C1.27035 16.39 1.05035 14.59 1.01035 12.82V12.72C1.05035 14.48 1.27035 16.26 1.27035 16.26C1.27035 16.26 1.47035 17.76 2.13035 18.43C2.96035 19.31 3.88035 19.31 4.31035 19.36C7.35035 19.58 11.9103 19.56 11.9103 19.56C11.9103 19.56 16.4703 19.58 19.5103 19.36C19.9403 19.31 20.8603 19.31 21.6903 18.43C22.3403 17.77 22.5503 16.26 22.5503 16.26C22.5503 16.26 22.7703 14.48 22.7803 12.71V12.81C22.7803 14.61 22.5503 16.37 22.5503 16.37V16.4Z" fill="#3E2723" fill-opacity="0.2"/>
<path d="M9.69034 15.08V15.18L15.5303 12.1V11.98" fill="white" fill-opacity="0.2"/>
<path d="M9.69034 8.89996V8.76996L15.5303 11.87V11.97" fill="#3E2723" fill-opacity="0.2"/>
</svg>
