<svg width="25" height="24" viewBox="0 0 25 24" fill="none" xmlns="http://www.w3.org/2000/svg">
<path d="M11.1403 1.21C11.6203 0.93 12.4003 0.93 12.8803 1.21L20.8903 5.85C21.3703 6.13 21.7603 6.82 21.7603 7.38V16.62C21.7603 17.18 21.3703 17.87 20.8903 18.15L12.8803 22.79C12.4003 23.07 11.6203 23.07 11.1403 22.79L3.13035 18.15C2.65035 17.87 2.26035 17.18 2.26035 16.62V7.38C2.26035 6.82 2.65035 6.13 3.13035 5.85L11.1403 1.21Z" fill="#FF0000"/>
<path d="M12.7203 18.98L17.6203 16.15C18.0303 15.91 18.2603 15.38 18.2603 14.91V9.24001C18.2603 8.77001 18.0303 8.24001 17.6203 8.00001L12.7203 5.18001C12.3103 4.95001 11.7003 4.95001 11.3003 5.18001L6.40035 8.00001C6.00035 8.23001 5.76035 8.77001 5.76035 9.24001V14.91C5.76035 15.38 6.00035 15.91 6.40035 16.15L11.3003 18.98C11.5003 19.1 11.7603 19.16 12.0103 19.16C12.2703 19.15 12.5203 19.09 12.7203 18.98Z" fill="white"/>
<path d="M12.3303 5.72997L17.2203 8.55997C17.3803 8.64997 17.6304 8.86997 17.6304 9.22997V14.9C17.6304 15.27 17.3803 15.44 17.2203 15.54L12.3303 18.37C12.1704 18.46 11.8504 18.46 11.6904 18.37L6.80035 15.54C6.64035 15.45 6.39035 15.2 6.39035 14.9V9.23997C6.41035 8.86997 6.64035 8.65997 6.80035 8.55997L11.6904 5.72997C11.7704 5.67997 11.8904 5.65997 12.0104 5.65997C12.1304 5.65997 12.2503 5.67997 12.3303 5.72997Z" fill="#FF0000"/>
<path d="M9.89035 15.25L15.5104 12L9.89035 8.75V15.25Z" fill="white"/>
</svg>
